<svg width="415" height="415" viewBox="0 0 415 415" fill="none" xmlns="http://www.w3.org/2000/svg">
<circle cx="207.5" cy="207.5" r="207.5" fill="#1A2630"/>
<path d="M84.8 159.7C89.3333 159.7 92.9 158.467 95.5 156C98.1667 153.533 99.5 150.133 99.5 145.8C99.5 139.667 97.9333 134.667 94.8 130.8C91.7333 126.867 87.2333 124.9 81.3 124.9C76.7667 124.9 72.6333 126.2 68.9 128.8V189.8L84.4 194.1L82.4 198.1H47V195L56.4 187.6V126.8L46 123.4L48 119.4H59.6C66.0667 119.4 72.4333 119.2 78.7 118.8C83.3667 118.533 86.8 118.4 89 118.4C93.6667 118.4 97.8 119.4 101.4 121.4C105.067 123.333 107.9 126.033 109.9 129.5C111.9 132.967 112.9 136.8 112.9 141C112.9 145.667 111.2 150.067 107.8 154.2C104.4 158.333 100.067 161.567 94.8 163.9C89.5333 166.233 84.3667 167.267 79.3 167L74.6 163.6L76.6 159.6H84.7L84.8 159.7ZM172.526 198H153.526V189.3L142.226 198.2C140.892 198.733 139.226 199 137.226 199C131.492 199 127.326 197.567 124.726 194.7C122.192 191.833 120.926 188.4 120.926 184.4C120.926 182 121.792 179.633 123.526 177.3C125.259 174.967 127.726 172.767 130.926 170.7H153.526V164.3C153.526 159.967 152.359 156.9 150.026 155.1C147.759 153.3 144.626 152.4 140.626 152.4C136.492 152.4 131.426 154.9 125.426 159.9L122.426 156.1L136.826 144.7C139.492 144.167 142.692 143.9 146.426 143.9C152.492 143.9 157.192 145.4 160.526 148.4C163.859 151.333 165.526 155.633 165.526 161.3V190.5L174.526 194L172.526 198ZM140.426 190.5C144.492 190.5 148.859 188.633 153.526 184.9V174.8H135.826C134.959 175.867 134.326 176.933 133.926 178C133.592 179.067 133.426 180.233 133.426 181.5C133.426 183.967 134.059 186.1 135.326 187.9C136.592 189.633 138.292 190.5 140.426 190.5ZM218.635 144C220.835 144 222.768 144.6 224.435 145.8C226.102 147 227.402 148.667 228.335 150.8L221.735 159.1H217.935C217.668 157.433 217.168 156.267 216.435 155.6C215.768 154.867 214.835 154.5 213.635 154.5C212.168 154.5 210.602 154.9 208.935 155.7C207.335 156.433 205.502 157.867 203.435 160V189.8L217.435 194.1L215.435 198.1H182.535V195L191.435 188V159.7L182.535 154.5V151.4L199.635 143L202.735 155.3L213.135 144.7C214.535 144.167 216.368 143.9 218.635 143.9V144ZM266.591 187.2C266.591 185.333 265.557 183.633 263.491 182.1C261.424 180.5 258.257 178.6 253.991 176.4C250.524 174.6 247.724 173.033 245.591 171.7C243.457 170.367 241.624 168.833 240.091 167.1C238.624 165.3 237.891 163.367 237.891 161.3C237.891 158.9 238.891 156.333 240.891 153.6C242.891 150.867 245.357 148.567 248.291 146.7C251.224 144.833 253.957 143.9 256.491 143.9C259.557 143.9 263.091 144.3 267.091 145.1C271.157 145.833 274.091 146.667 275.891 147.6V163H272.091C269.957 158.867 267.491 155.667 264.691 153.4C261.891 151.067 259.024 149.9 256.091 149.9C254.024 149.9 252.357 150.467 251.091 151.6C249.824 152.667 249.191 154.033 249.191 155.7C249.191 157.767 250.257 159.633 252.391 161.3C254.591 162.9 257.891 164.8 262.291 167C265.691 168.733 268.424 170.233 270.491 171.5C272.557 172.767 274.291 174.267 275.691 176C277.157 177.667 277.891 179.533 277.891 181.6C277.891 184.067 276.824 186.667 274.691 189.4C272.624 192.067 270.057 194.333 266.991 196.2C263.991 198.067 261.224 199 258.691 199C255.424 199 251.524 198.633 246.991 197.9C242.524 197.1 239.324 196.233 237.391 195.3V179.9H241.191C243.524 184.033 246.291 187.267 249.491 189.6C252.691 191.867 255.924 193 259.191 193C261.391 193 263.157 192.433 264.491 191.3C265.891 190.167 266.591 188.8 266.591 187.2ZM324.35 198.2C321.683 198.733 318.483 199 314.75 199C310.35 199 306.383 197.867 302.85 195.6C299.383 193.267 296.65 190.133 294.65 186.2C292.717 182.267 291.75 177.933 291.75 173.2C291.75 168.067 293.317 163.267 296.45 158.8C299.583 154.267 303.483 150.667 308.15 148C312.883 145.267 317.45 143.9 321.85 143.9C328.183 143.9 333.083 146.4 336.55 151.4C340.083 156.4 341.85 163 341.85 171.2H304.85C305.25 176.867 306.783 181.5 309.45 185.1C312.183 188.7 315.883 190.5 320.55 190.5C324.883 190.5 331.05 187.133 339.05 180.4L342.05 184.2L324.35 198.2ZM316.05 152.3C308.85 152.3 305.083 157.233 304.75 167.1H328.15C327.55 163.5 326.917 160.767 326.25 158.9C325.65 156.967 324.55 155.4 322.95 154.2C321.417 152.933 319.117 152.3 316.05 152.3ZM390.608 144C392.808 144 394.741 144.6 396.408 145.8C398.074 147 399.374 148.667 400.308 150.8L393.708 159.1H389.908C389.641 157.433 389.141 156.267 388.408 155.6C387.741 154.867 386.808 154.5 385.608 154.5C384.141 154.5 382.574 154.9 380.908 155.7C379.308 156.433 377.474 157.867 375.408 160V189.8L389.408 194.1L387.408 198.1H354.508V195L363.408 188V159.7L354.508 154.5V151.4L371.608 143L374.708 155.3L385.108 144.7C386.508 144.167 388.341 143.9 390.608 143.9V144Z" fill="#FAFCFF"/>
<path d="M158.4 347H152.9V228.4H158.4V347ZM220.005 235.6C212.005 241.467 205.805 248.5 201.405 256.7C197.005 264.9 194.805 274.9 194.805 286.7C194.805 298.767 196.871 309.9 201.005 320.1C205.205 330.3 211.505 338.3 219.905 344.1L217.205 348C210.005 345.267 203.705 341.2 198.305 335.8C192.905 330.467 188.705 324.033 185.705 316.5C182.771 308.9 181.305 300.567 181.305 291.5C181.305 267.9 193.405 247.967 217.605 231.7L220.005 235.6ZM231.965 344.1C239.965 338.233 246.165 331.2 250.565 323C254.965 314.8 257.165 304.8 257.165 293C257.165 280.933 255.065 269.8 250.865 259.6C246.732 249.4 240.465 241.4 232.065 235.6L234.765 231.7C241.965 234.433 248.265 238.5 253.665 243.9C259.065 249.233 263.232 255.7 266.165 263.3C269.165 270.833 270.665 279.133 270.665 288.2C270.665 311.8 258.565 331.733 234.365 348L231.965 344.1Z" fill="white"/>
</svg>
